<svg id="Layer_1" data-name="Layer 1" xmlns="http://www.w3.org/2000/svg" width="512" height="512" viewBox="0 0 512 512"><path d="M438.7,222.296l-40.42-8.152a147.30029,147.30029,0,0,0-12.096-29.124l22.84-34.376a6.996,6.996,0,0,0-.88-8.8l-37.968-37.968a6.996,6.996,0,0,0-8.8-.88L327,125.836a147.29984,147.29984,0,0,0-29.124-12.096l-8.152-40.4a6.996,6.996,0,0,0-6.86-5.6H229.156a6.996,6.996,0,0,0-6.86,5.6l-8.152,40.38a147.30026,147.30026,0,0,0-29.124,12.096l-34.376-22.84a6.992,6.992,0,0,0-8.8.88l-37.968,37.968a6.996,6.996,0,0,0-.88,8.8L125.836,185a147.30033,147.30033,0,0,0-12.096,29.124l-40.4,8.152a6.996,6.996,0,0,0-5.6,6.86v53.708a6.996,6.996,0,0,0,5.6,6.86l40.38,8.152a147.29984,147.29984,0,0,0,12.096,29.124l-22.84,34.376a6.996,6.996,0,0,0,.88,8.8l37.968,37.968a6.992,6.992,0,0,0,8.8.88L185,386.164a147.29987,147.29987,0,0,0,29.124,12.096l8.152,40.42a6.996,6.996,0,0,0,6.86,5.6h53.708a6.996,6.996,0,0,0,6.86-5.6l8.152-40.4a147.29987,147.29987,0,0,0,29.124-12.096l34.376,22.84a7.008,7.008,0,0,0,8.8-.88l37.968-37.968a6.996,6.996,0,0,0,.88-8.8L386.164,327a147.29987,147.29987,0,0,0,12.096-29.124l40.42-8.152a6.996,6.996,0,0,0,5.6-6.86V229.156A6.996,6.996,0,0,0,438.7,222.296Zm-8.4,54.8-39.016,7.868a6.98808,6.98808,0,0,0-5.384,5.092,133.59968,133.59968,0,0,1-14,33.66,6.992,6.992,0,0,0,.212,7.408l22.044,33.2-29.86,29.86-33.2-22.044a6.992,6.992,0,0,0-7.408-.212,133.6,133.6,0,0,1-33.66,14,6.98805,6.98805,0,0,0-5.092,5.384l-7.868,39.016H234.884l-7.868-39.016a6.988,6.988,0,0,0-5.092-5.384,133.59953,133.59953,0,0,1-33.66-14,7.004,7.004,0,0,0-7.408.212l-33.2,22.044-29.86-29.86,22.044-33.2a6.992,6.992,0,0,0,.212-7.408,133.59961,133.59961,0,0,1-13.98-33.66,6.988,6.988,0,0,0-5.384-5.092l-39.016-7.868V234.884l39.016-7.868a6.988,6.988,0,0,0,5.384-5.092,133.59992,133.59992,0,0,1,13.98-33.66,6.992,6.992,0,0,0-.212-7.408l-22.044-33.2,29.86-29.86,33.2,22.044a6.984,6.984,0,0,0,7.408.212,133.59992,133.59992,0,0,1,33.66-13.98,6.988,6.988,0,0,0,5.092-5.384l7.868-39.016h42.232l7.868,39.016a6.988,6.988,0,0,0,5.092,5.384,133.59961,133.59961,0,0,1,33.66,13.98,6.984,6.984,0,0,0,7.408-.212l33.2-22.044,29.86,29.86-22.044,33.2a6.992,6.992,0,0,0-.212,7.408,133.59953,133.59953,0,0,1,14,33.66,6.988,6.988,0,0,0,5.384,5.092l39.016,7.868Z"/><path d="M256,159.508A96.492,96.492,0,1,0,352.492,256,96.492,96.492,0,0,0,256,159.508Zm0,178.984A82.492,82.492,0,1,1,338.492,256,82.492,82.492,0,0,1,256,338.492Z"/><path d="M256,188.86A67.14,67.14,0,1,0,323.14,256,67.14,67.14,0,0,0,256,188.86Zm0,120.28A53.14,53.14,0,1,1,309.14,256,53.14,53.14,0,0,1,256,309.14Z"/></svg>